# This file uses centimeters as units for non-parametric coordinates.

mtllib floor_bend_HP.mtl
g default
v -0.000002 0.000000 0.000000
v 2.999998 0.000000 0.000000
v 3.000000 0.000000 -3.000000
v 2.680386 0.000000 -2.987648
v 2.364201 0.000000 -2.948513
v 2.062064 0.000000 -2.884087
v 1.780663 0.000000 -2.797445
v 1.507407 0.000000 -2.683403
v 1.255627 0.000000 -2.540481
v 1.021619 0.000000 -2.374602
v 0.810568 0.000000 -2.185767
v 0.628398 0.000000 -1.980640
v 0.458816 0.000000 -1.744411
v 0.318116 0.000000 -1.489668
v 0.199631 0.000000 -1.214931
v 0.110361 0.000000 -0.929036
v 0.045391 0.000000 -0.627196
v 0.002669 0.000000 -0.252770
vt 0.000000 0.000000
vt 1.000000 0.000000
vt 1.000000 1.000000
vt 0.893463 0.995883
vt 0.788068 0.982838
vt 0.687355 0.961362
vt 0.593555 0.932482
vt 0.502470 0.894468
vt 0.418543 0.846827
vt 0.340540 0.791534
vt 0.270190 0.728589
vt 0.209467 0.660213
vt 0.152939 0.581470
vt 0.106039 0.496556
vt 0.066544 0.404977
vt 0.036788 0.309679
vt 0.015131 0.209065
vt 0.000890 0.084257
vn 0.000000 1.000000 0.000000
vn 0.000000 1.000000 0.000000
vn 0.000000 1.000000 0.000000
vn 0.000000 1.000000 0.000000
vn 0.000000 1.000000 0.000000
vn 0.000000 1.000000 0.000000
vn 0.000000 1.000000 0.000000
vn 0.000000 1.000000 0.000000
vn 0.000000 1.000000 0.000000
vn 0.000000 1.000000 0.000000
vn 0.000000 1.000000 0.000000
vn 0.000000 1.000000 0.000000
vn 0.000000 1.000000 0.000000
vn 0.000000 1.000000 0.000000
vn 0.000000 1.000000 0.000000
vn 0.000000 1.000000 0.000000
vn 0.000000 1.000000 0.000000
vn 0.000000 1.000000 0.000000
s off
g floor_bend
f 1/1/1 2/2/2 3/3/3 4/4/4 5/5/5 6/6/6 7/7/7 8/8/8 9/9/9 10/10/10 11/11/11 12/12/12 13/13/13 14/14/14 15/15/15 16/16/16 17/17/17 18/18/18
