# This file uses centimeters as units for non-parametric coordinates.

mtllib speed_HP.mtl
g default
v 0.187884 0.500000 -0.061047
v 0.159824 0.500000 -0.116119
v 0.116119 0.500000 -0.159824
v 0.061047 0.500000 -0.187884
v -0.000000 0.500000 -0.197553
v -0.061047 0.500000 -0.187884
v -0.116119 0.500000 -0.159824
v -0.159824 0.500000 -0.116119
v -0.187884 0.500000 -0.061047
v -0.197553 0.500000 0.000000
v -0.187884 0.500000 0.061047
v -0.159824 0.500000 0.116119
v -0.116119 0.500000 0.159824
v -0.061047 0.500000 0.187884
v -0.000000 0.500000 0.197553
v 0.061047 0.500000 0.187884
v 0.116119 0.500000 0.159824
v 0.159824 0.500000 0.116119
v 0.187884 0.500000 0.061047
v 0.197553 0.500000 -0.000000
v -0.000000 0.866667 -0.000000
v 0.187884 0.500000 0.061047
v 0.159824 0.500000 0.116119
v 0.116119 0.500000 0.159824
v 0.061047 0.500000 0.187884
v -0.000000 0.500000 0.197553
v -0.061047 0.500000 0.187884
v -0.116119 0.500000 0.159824
v -0.159824 0.500000 0.116119
v -0.187884 0.500000 0.061047
v -0.197553 0.500000 0.000000
v -0.187884 0.500000 -0.061047
v -0.159824 0.500000 -0.116119
v -0.116119 0.500000 -0.159824
v -0.061047 0.500000 -0.187884
v -0.000000 0.500000 -0.197553
v 0.061047 0.500000 -0.187884
v 0.116119 0.500000 -0.159824
v 0.159824 0.500000 -0.116119
v 0.187884 0.500000 -0.061047
v 0.197553 0.500000 0.000000
v -0.000000 0.133333 0.000000
v 0.176007 0.500000 0.089680
v 0.093065 0.333333 0.067616
v 0.109405 0.333333 0.035548
v 0.139680 0.500000 0.139680
v 0.067616 0.333333 0.093066
v 0.089680 0.500000 0.176007
v 0.035548 0.333333 0.109405
v 0.030902 0.500000 0.195106
v -0.000000 0.333333 0.115035
v -0.030902 0.500000 0.195106
v -0.035548 0.333333 0.109405
v -0.089680 0.500000 0.176007
v -0.067616 0.333333 0.093065
v -0.139680 0.500000 0.139680
v -0.093066 0.333333 0.067616
v -0.176007 0.500000 0.089680
v -0.109405 0.333333 0.035548
v -0.195106 0.500000 0.030902
v -0.115035 0.333333 0.000000
v -0.195106 0.500000 -0.030902
v -0.109405 0.333333 -0.035548
v -0.176007 0.500000 -0.089680
v -0.093066 0.333333 -0.067616
v -0.139680 0.500000 -0.139680
v -0.067616 0.333333 -0.093065
v -0.089680 0.500000 -0.176007
v -0.035548 0.333333 -0.109405
v -0.030902 0.500000 -0.195106
v -0.000000 0.333333 -0.115035
v 0.030902 0.500000 -0.195106
v 0.035548 0.333333 -0.109405
v 0.089680 0.500000 -0.176007
v 0.067616 0.333333 -0.093065
v 0.139680 0.500000 -0.139680
v 0.093065 0.333333 -0.067616
v 0.176007 0.500000 -0.089680
v 0.109405 0.333333 -0.035548
v 0.195106 0.500000 -0.030902
v 0.115035 0.333333 0.000000
v 0.195106 0.500000 0.030902
v 0.176007 0.500000 -0.089680
v 0.093065 0.666667 -0.067616
v 0.109405 0.666667 -0.035548
v 0.139680 0.500000 -0.139680
v 0.067616 0.666667 -0.093066
v 0.089680 0.500000 -0.176007
v 0.035548 0.666667 -0.109405
v 0.030902 0.500000 -0.195106
v -0.000000 0.666667 -0.115035
v -0.030902 0.500000 -0.195106
v -0.035548 0.666667 -0.109405
v -0.089680 0.500000 -0.176007
v -0.067616 0.666667 -0.093065
v -0.139680 0.500000 -0.139680
v -0.093066 0.666667 -0.067616
v -0.176007 0.500000 -0.089680
v -0.109405 0.666667 -0.035548
v -0.195106 0.500000 -0.030902
v -0.115035 0.666667 0.000000
v -0.195106 0.500000 0.030902
v -0.109405 0.666667 0.035548
v -0.176007 0.500000 0.089680
v -0.093066 0.666667 0.067616
v -0.139680 0.500000 0.139680
v -0.067616 0.666667 0.093065
v -0.089680 0.500000 0.176007
v -0.035548 0.666667 0.109405
v -0.030902 0.500000 0.195106
v -0.000000 0.666667 0.115035
v 0.030902 0.500000 0.195106
v 0.035548 0.666667 0.109405
v 0.089680 0.500000 0.176007
v 0.067616 0.666667 0.093065
v 0.139680 0.500000 0.139680
v 0.093065 0.666667 0.067616
v 0.176007 0.500000 0.089680
v 0.109405 0.666667 0.035548
v 0.195106 0.500000 0.030902
v 0.115035 0.666667 -0.000000
v 0.195106 0.500000 -0.030902
v 0.117338 0.633333 -0.059787
v 0.093120 0.633333 -0.093120
v 0.059787 0.633333 -0.117338
v 0.020601 0.633333 -0.130071
v -0.020601 0.633333 -0.130071
v -0.059787 0.633333 -0.117338
v -0.093120 0.633333 -0.093120
v -0.117338 0.633333 -0.059787
v -0.130071 0.633333 -0.020601
v -0.130071 0.633333 0.020601
v -0.117338 0.633333 0.059787
v -0.093120 0.633333 0.093120
v -0.059787 0.633333 0.117338
v -0.020601 0.633333 0.130070
v 0.020601 0.633333 0.130070
v 0.059787 0.633333 0.117338
v 0.093120 0.633333 0.093120
v 0.117338 0.633333 0.059787
v 0.130070 0.633333 0.020601
v 0.130070 0.633333 -0.020601
v 0.117338 0.366667 0.059787
v 0.093120 0.366667 0.093120
v 0.059787 0.366667 0.117338
v 0.020601 0.366667 0.130071
v -0.020601 0.366667 0.130071
v -0.059787 0.366667 0.117338
v -0.093120 0.366667 0.093120
v -0.117338 0.366667 0.059787
v -0.130071 0.366667 0.020601
v -0.130071 0.366667 -0.020601
v -0.117338 0.366667 -0.059787
v -0.093120 0.366667 -0.093120
v -0.059787 0.366667 -0.117338
v -0.020601 0.366667 -0.130070
v 0.020601 0.366667 -0.130070
v 0.059787 0.366667 -0.117338
v 0.093120 0.366667 -0.093120
v 0.117338 0.366667 -0.059787
v 0.130070 0.366667 -0.020601
v 0.130070 0.366667 0.020601
vt 0.186071 0.001992
vt 0.231999 0.001992
vt 0.468851 0.331495
vt 0.268447 0.001992
vt 0.422923 0.331495
vt 0.372012 0.331495
vt 0.321101 0.331495
vt 0.474971 0.001992
vt 0.275174 0.331495
vt 0.511419 0.001992
vt 0.557347 0.001992
vt 0.608258 0.001992
vt 0.659169 0.001992
vt 0.705096 0.001992
vt 0.744955 0.335249
vt 0.741544 0.001992
vt 0.790883 0.335249
vt 0.841794 0.335249
vt 0.892705 0.335249
vt 0.001874 0.001992
vt 0.938632 0.335249
vt 0.038322 0.001992
vt 0.084249 0.001992
vt 0.135160 0.001992
vt 0.135160 0.331495
vt 0.372012 0.001992
vt 0.608258 0.331495
vt 0.841794 0.664751
vt 0.554987 0.664751
vt 0.509060 0.664751
vt 0.466841 0.664751
vt 0.472612 0.664751
vt 0.420914 0.664751
vt 0.370003 0.664751
vt 0.319092 0.664751
vt 0.268447 0.664751
vt 0.273164 0.664751
vt 0.231999 0.664751
vt 0.186071 0.664751
vt 0.135160 0.664751
vt 0.084249 0.664751
vt 0.038322 0.664751
vt 0.275174 0.668505
vt 0.001874 0.664751
vt 0.321101 0.668505
vt 0.372012 0.668505
vt 0.422923 0.668505
vt 0.739185 0.664751
vt 0.468851 0.668505
vt 0.702737 0.664751
vt 0.656809 0.664751
vt 0.605898 0.664751
vt 0.605898 0.335249
vt 0.370003 0.335249
vt 0.135160 0.335249
vt 0.372012 0.998008
vt 0.184410 0.111826
vt 0.211869 0.111826
vt 0.421262 0.221660
vt 0.388983 0.221660
vt 0.355042 0.221660
vt 0.322763 0.221660
vt 0.531549 0.111826
vt 0.559008 0.111826
vt 0.591287 0.111826
vt 0.625228 0.111826
vt 0.657507 0.111826
vt 0.684966 0.111826
vt 0.792544 0.445083
vt 0.824823 0.445083
vt 0.858764 0.445083
vt 0.891043 0.445083
vt 0.058452 0.111826
vt 0.085910 0.111826
vt 0.118190 0.111826
vt 0.152130 0.111826
vt 0.556648 0.554917
vt 0.529190 0.554917
vt 0.419253 0.554917
vt 0.386973 0.554917
vt 0.353032 0.554917
vt 0.320753 0.554917
vt 0.211869 0.554917
vt 0.184410 0.554917
vt 0.152130 0.554917
vt 0.118190 0.554917
vt 0.085910 0.554917
vt 0.058452 0.554917
vt 0.322762 0.778340
vt 0.355042 0.778340
vt 0.388983 0.778340
vt 0.421262 0.778340
vt 0.682607 0.554917
vt 0.655148 0.554917
vt 0.622869 0.554917
vt 0.588928 0.554917
vt 0.209035 0.001992
vt 0.190859 0.139285
vt 0.164443 0.139285
vt 0.250223 0.001992
vt 0.201803 0.166743
vt 0.420432 0.166743
vt 0.445887 0.331495
vt 0.401295 0.194202
vt 0.397468 0.331495
vt 0.372012 0.194202
vt 0.346557 0.331495
vt 0.342730 0.194202
vt 0.298138 0.331495
vt 0.323593 0.166743
vt 0.541614 0.166743
vt 0.493195 0.001992
vt 0.552558 0.139285
vt 0.534383 0.001992
vt 0.578975 0.139285
vt 0.582802 0.001992
vt 0.608258 0.139285
vt 0.633713 0.001992
vt 0.637540 0.139285
vt 0.682132 0.001992
vt 0.663957 0.139285
vt 0.723320 0.001992
vt 0.674901 0.166743
vt 0.793374 0.500000
vt 0.767919 0.335249
vt 0.812511 0.472541
vt 0.816338 0.335249
vt 0.841794 0.472541
vt 0.867249 0.335249
vt 0.871076 0.472541
vt 0.915668 0.335249
vt 0.890213 0.500000
vt 0.068517 0.166743
vt 0.020098 0.001992
vt 0.079461 0.139285
vt 0.061285 0.001992
vt 0.105877 0.139285
vt 0.109705 0.001992
vt 0.135160 0.139285
vt 0.160616 0.001992
vt 0.532024 0.664751
vt 0.550199 0.527459
vt 0.576616 0.527459
vt 0.490836 0.664751
vt 0.539255 0.500000
vt 0.418422 0.500000
vt 0.443878 0.664751
vt 0.399286 0.527459
vt 0.395458 0.664751
vt 0.370003 0.527459
vt 0.344547 0.664751
vt 0.340720 0.527459
vt 0.296128 0.664751
vt 0.321584 0.500000
vt 0.201803 0.500000
vt 0.250223 0.664751
vt 0.190859 0.527458
vt 0.209035 0.664751
vt 0.164443 0.527458
vt 0.160616 0.664751
vt 0.135160 0.527458
vt 0.109705 0.664751
vt 0.105877 0.527458
vt 0.061285 0.664751
vt 0.079461 0.527458
vt 0.020098 0.664751
vt 0.068517 0.500000
vt 0.323593 0.833257
vt 0.298138 0.668505
vt 0.342730 0.805798
vt 0.346557 0.668505
vt 0.372012 0.805798
vt 0.397468 0.668505
vt 0.401295 0.805798
vt 0.445887 0.668505
vt 0.420431 0.833257
vt 0.672542 0.500000
vt 0.720961 0.664751
vt 0.661597 0.527459
vt 0.679773 0.664751
vt 0.635181 0.527459
vt 0.631354 0.664751
vt 0.605898 0.527459
vt 0.580443 0.664751
vn 0.852539 0.443221 -0.277006
vn 0.798633 0.443394 -0.406924
vn 0.795199 0.451101 -0.405174
vn 0.829890 0.488440 -0.269648
vn 0.725213 0.443221 -0.526898
vn 0.705946 0.488440 -0.512899
vn 0.000001 1.000000 -0.000000
vn 0.633799 0.443394 -0.633799
vn 0.631074 0.451101 -0.631074
vn 0.526898 0.443221 -0.725213
vn 0.512900 0.488440 -0.705946
vn 0.406924 0.443394 -0.798633
vn 0.405174 0.451101 -0.795199
vn 0.277006 0.443221 -0.852539
vn 0.269647 0.488440 -0.829890
vn 0.140216 0.443394 -0.885292
vn 0.139613 0.451101 -0.881485
vn -0.000000 0.443221 -0.896412
vn 0.000000 0.488440 -0.872598
vn -0.140216 0.443394 -0.885292
vn -0.139613 0.451101 -0.881485
vn -0.277007 0.443221 -0.852539
vn -0.269648 0.488440 -0.829889
vn -0.406924 0.443394 -0.798633
vn -0.405174 0.451101 -0.795199
vn -0.526898 0.443221 -0.725213
vn -0.512900 0.488440 -0.705946
vn -0.633799 0.443394 -0.633799
vn -0.631074 0.451101 -0.631073
vn -0.725213 0.443221 -0.526898
vn -0.705946 0.488440 -0.512900
vn -0.798633 0.443394 -0.406924
vn -0.795199 0.451101 -0.405174
vn -0.852539 0.443221 -0.277007
vn -0.829890 0.488440 -0.269647
vn -0.885292 0.443394 -0.140216
vn -0.881485 0.451101 -0.139613
vn -0.896413 0.443221 0.000000
vn -0.872598 0.488440 0.000000
vn -0.885292 0.443394 0.140216
vn -0.881485 0.451101 0.139613
vn -0.852539 0.443221 0.277007
vn -0.829890 0.488440 0.269648
vn -0.798633 0.443394 0.406924
vn -0.795199 0.451101 0.405175
vn -0.725213 0.443221 0.526898
vn -0.705946 0.488440 0.512901
vn -0.633799 0.443394 0.633799
vn -0.631074 0.451101 0.631074
vn -0.526898 0.443221 0.725213
vn -0.512900 0.488440 0.705947
vn -0.406924 0.443394 0.798633
vn -0.405174 0.451101 0.795199
vn -0.277007 0.443221 0.852539
vn -0.269647 0.488440 0.829890
vn -0.140216 0.443394 0.885292
vn -0.139613 0.451101 0.881485
vn 0.000000 0.443221 0.896413
vn 0.000000 0.488440 0.872598
vn 0.140216 0.443394 0.885292
vn 0.139614 0.451101 0.881485
vn 0.277007 0.443221 0.852539
vn 0.269648 0.488440 0.829890
vn 0.406924 0.443394 0.798633
vn 0.405175 0.451101 0.795199
vn 0.526898 0.443221 0.725213
vn 0.512900 0.488440 0.705946
vn 0.633798 0.443394 0.633799
vn 0.631073 0.451101 0.631074
vn 0.725213 0.443221 0.526898
vn 0.705946 0.488440 0.512900
vn 0.798633 0.443394 0.406924
vn 0.795199 0.451101 0.405174
vn 0.852539 0.443221 0.277007
vn 0.829890 0.488440 0.269648
vn 0.885292 0.443394 0.140217
vn 0.881485 0.451101 0.139614
vn 0.896413 0.443221 0.000001
vn 0.872598 0.488440 0.000000
vn 0.885292 0.443394 -0.140215
vn 0.881485 0.451101 -0.139613
vn 0.852539 -0.443221 0.277006
vn 0.798633 -0.443394 0.406924
vn 0.795199 -0.451101 0.405174
vn 0.829890 -0.488440 0.269647
vn 0.725213 -0.443221 0.526898
vn 0.705946 -0.488441 0.512900
vn 0.000002 -1.000000 -0.000000
vn 0.633799 -0.443394 0.633799
vn 0.631073 -0.451101 0.631074
vn 0.526898 -0.443221 0.725213
vn 0.512900 -0.488440 0.705946
vn 0.406923 -0.443394 0.798633
vn 0.405174 -0.451101 0.795199
vn 0.277006 -0.443221 0.852539
vn 0.269647 -0.488440 0.829889
vn 0.140216 -0.443394 0.885292
vn 0.139613 -0.451101 0.881485
vn -0.000000 -0.443221 0.896413
vn -0.000000 -0.488440 0.872597
vn -0.140216 -0.443394 0.885292
vn -0.139613 -0.451101 0.881485
vn -0.277007 -0.443221 0.852539
vn -0.269647 -0.488440 0.829889
vn -0.406924 -0.443394 0.798633
vn -0.405174 -0.451101 0.795199
vn -0.526898 -0.443221 0.725213
vn -0.512900 -0.488440 0.705946
vn -0.633799 -0.443394 0.633799
vn -0.631074 -0.451101 0.631073
vn -0.725213 -0.443221 0.526898
vn -0.705946 -0.488440 0.512900
vn -0.798633 -0.443394 0.406924
vn -0.795199 -0.451101 0.405174
vn -0.852539 -0.443221 0.277006
vn -0.829889 -0.488440 0.269647
vn -0.885292 -0.443394 0.140216
vn -0.881485 -0.451101 0.139613
vn -0.896413 -0.443221 0.000000
vn -0.872597 -0.488440 0.000000
vn -0.885292 -0.443394 -0.140216
vn -0.881485 -0.451101 -0.139613
vn -0.852539 -0.443221 -0.277007
vn -0.829889 -0.488440 -0.269648
vn -0.798633 -0.443394 -0.406924
vn -0.795199 -0.451101 -0.405175
vn -0.725213 -0.443221 -0.526898
vn -0.705946 -0.488440 -0.512900
vn -0.633799 -0.443394 -0.633799
vn -0.631074 -0.451101 -0.631073
vn -0.526898 -0.443221 -0.725213
vn -0.512900 -0.488440 -0.705946
vn -0.406924 -0.443394 -0.798633
vn -0.405174 -0.451101 -0.795199
vn -0.277007 -0.443221 -0.852539
vn -0.269647 -0.488440 -0.829889
vn -0.140216 -0.443394 -0.885292
vn -0.139613 -0.451101 -0.881485
vn 0.000000 -0.443221 -0.896413
vn 0.000000 -0.488440 -0.872597
vn 0.140216 -0.443394 -0.885292
vn 0.139614 -0.451101 -0.881485
vn 0.277007 -0.443221 -0.852539
vn 0.269648 -0.488440 -0.829889
vn 0.406924 -0.443394 -0.798633
vn 0.405175 -0.451101 -0.795199
vn 0.526898 -0.443221 -0.725213
vn 0.512900 -0.488440 -0.705946
vn 0.633798 -0.443394 -0.633799
vn 0.631073 -0.451101 -0.631074
vn 0.725213 -0.443221 -0.526898
vn 0.705946 -0.488440 -0.512900
vn 0.798633 -0.443394 -0.406924
vn 0.795199 -0.451101 -0.405174
vn 0.852539 -0.443221 -0.277007
vn 0.829889 -0.488440 -0.269647
vn 0.885292 -0.443394 -0.140216
vn 0.881485 -0.451101 -0.139614
vn 0.896413 -0.443221 -0.000001
vn 0.872597 -0.488440 -0.000001
vn 0.885292 -0.443394 0.140215
vn 0.881485 -0.451101 0.139612
s 1
g hp_speed
usemtl initialShadingGroup
f 1/1/1 83/97/2 123/57/3 85/99/4
f 2/2/5 84/98/6 123/57/3 83/97/2
f 21/25/7 85/99/4 123/57/3 84/98/6
f 2/2/5 86/100/8 124/58/9 84/98/6
f 3/4/10 87/101/11 124/58/9 86/100/8
f 21/25/7 84/98/6 124/58/9 87/101/11
f 3/3/10 88/103/12 125/59/13 87/102/11
f 4/5/14 89/104/15 125/59/13 88/103/12
f 21/26/7 87/102/11 125/59/13 89/104/15
f 4/5/14 90/105/16 126/60/17 89/104/15
f 5/6/18 91/106/19 126/60/17 90/105/16
f 21/26/7 89/104/15 126/60/17 91/106/19
f 5/6/18 92/107/20 127/61/21 91/106/19
f 6/7/22 93/108/23 127/61/21 92/107/20
f 21/26/7 91/106/19 127/61/21 93/108/23
f 6/7/22 94/109/24 128/62/25 93/108/23
f 7/9/26 95/110/27 128/62/25 94/109/24
f 21/26/7 93/108/23 128/62/25 95/110/27
f 7/8/26 96/112/28 129/63/29 95/111/27
f 8/10/30 97/113/31 129/63/29 96/112/28
f 21/27/7 95/111/27 129/63/29 97/113/31
f 8/10/30 98/114/32 130/64/33 97/113/31
f 9/11/34 99/115/35 130/64/33 98/114/32
f 21/27/7 97/113/31 130/64/33 99/115/35
f 9/11/34 100/116/36 131/65/37 99/115/35
f 10/12/38 101/117/39 131/65/37 100/116/36
f 21/27/7 99/115/35 131/65/37 101/117/39
f 10/12/38 102/118/40 132/66/41 101/117/39
f 11/13/42 103/119/43 132/66/41 102/118/40
f 21/27/7 101/117/39 132/66/41 103/119/43
f 11/13/42 104/120/44 133/67/45 103/119/43
f 12/14/46 105/121/47 133/67/45 104/120/44
f 21/27/7 103/119/43 133/67/45 105/121/47
f 12/14/46 106/122/48 134/68/49 105/121/47
f 13/16/50 107/123/51 134/68/49 106/122/48
f 21/27/7 105/121/47 134/68/49 107/123/51
f 13/15/50 108/125/52 135/69/53 107/124/51
f 14/17/54 109/126/55 135/69/53 108/125/52
f 21/28/7 107/124/51 135/69/53 109/126/55
f 14/17/54 110/127/56 136/70/57 109/126/55
f 15/18/58 111/128/59 136/70/57 110/127/56
f 21/28/7 109/126/55 136/70/57 111/128/59
f 15/18/58 112/129/60 137/71/61 111/128/59
f 16/19/62 113/130/63 137/71/61 112/129/60
f 21/28/7 111/128/59 137/71/61 113/130/63
f 16/19/62 114/131/64 138/72/65 113/130/63
f 17/21/66 115/132/67 138/72/65 114/131/64
f 21/28/7 113/130/63 138/72/65 115/132/67
f 17/20/66 116/134/68 139/73/69 115/133/67
f 18/22/70 117/135/71 139/73/69 116/134/68
f 21/25/7 115/133/67 139/73/69 117/135/71
f 18/22/70 118/136/72 140/74/73 117/135/71
f 19/23/74 119/137/75 140/74/73 118/136/72
f 21/25/7 117/135/71 140/74/73 119/137/75
f 19/23/74 120/138/76 141/75/77 119/137/75
f 20/24/78 121/139/79 141/75/77 120/138/76
f 21/25/7 119/137/75 141/75/77 121/139/79
f 20/24/78 122/140/80 142/76/81 121/139/79
f 1/1/1 85/99/4 142/76/81 122/140/80
f 21/25/7 121/139/79 142/76/81 85/99/4
s 2
f 22/29/82 43/141/83 143/77/84 45/143/85
f 23/30/86 44/142/87 143/77/84 43/141/83
f 42/53/88 45/143/85 143/77/84 44/142/87
f 23/30/86 46/144/89 144/78/90 44/142/87
f 24/32/91 47/145/92 144/78/90 46/144/89
f 42/53/88 44/142/87 144/78/90 47/145/92
f 24/31/91 48/147/93 145/79/94 47/146/92
f 25/33/95 49/148/96 145/79/94 48/147/93
f 42/54/88 47/146/92 145/79/94 49/148/96
f 25/33/95 50/149/97 146/80/98 49/148/96
f 26/34/99 51/150/100 146/80/98 50/149/97
f 42/54/88 49/148/96 146/80/98 51/150/100
f 26/34/99 52/151/101 147/81/102 51/150/100
f 27/35/103 53/152/104 147/81/102 52/151/101
f 42/54/88 51/150/100 147/81/102 53/152/104
f 27/35/103 54/153/105 148/82/106 53/152/104
f 28/37/107 55/154/108 148/82/106 54/153/105
f 42/54/88 53/152/104 148/82/106 55/154/108
f 28/36/107 56/156/109 149/83/110 55/155/108
f 29/38/111 57/157/112 149/83/110 56/156/109
f 42/55/88 55/155/108 149/83/110 57/157/112
f 29/38/111 58/158/113 150/84/114 57/157/112
f 30/39/115 59/159/116 150/84/114 58/158/113
f 42/55/88 57/157/112 150/84/114 59/159/116
f 30/39/115 60/160/117 151/85/118 59/159/116
f 31/40/119 61/161/120 151/85/118 60/160/117
f 42/55/88 59/159/116 151/85/118 61/161/120
f 31/40/119 62/162/121 152/86/122 61/161/120
f 32/41/123 63/163/124 152/86/122 62/162/121
f 42/55/88 61/161/120 152/86/122 63/163/124
f 32/41/123 64/164/125 153/87/126 63/163/124
f 33/42/127 65/165/128 153/87/126 64/164/125
f 42/55/88 63/163/124 153/87/126 65/165/128
f 33/42/127 66/166/129 154/88/130 65/165/128
f 34/44/131 67/167/132 154/88/130 66/166/129
f 42/55/88 65/165/128 154/88/130 67/167/132
f 34/43/131 68/169/133 155/89/134 67/168/132
f 35/45/135 69/170/136 155/89/134 68/169/133
f 42/56/88 67/168/132 155/89/134 69/170/136
f 35/45/135 70/171/137 156/90/138 69/170/136
f 36/46/139 71/172/140 156/90/138 70/171/137
f 42/56/88 69/170/136 156/90/138 71/172/140
f 36/46/139 72/173/141 157/91/142 71/172/140
f 37/47/143 73/174/144 157/91/142 72/173/141
f 42/56/88 71/172/140 157/91/142 73/174/144
f 37/47/143 74/175/145 158/92/146 73/174/144
f 38/49/147 75/176/148 158/92/146 74/175/145
f 42/56/88 73/174/144 158/92/146 75/176/148
f 38/48/147 76/178/149 159/93/150 75/177/148
f 39/50/151 77/179/152 159/93/150 76/178/149
f 42/53/88 75/177/148 159/93/150 77/179/152
f 39/50/151 78/180/153 160/94/154 77/179/152
f 40/51/155 79/181/156 160/94/154 78/180/153
f 42/53/88 77/179/152 160/94/154 79/181/156
f 40/51/155 80/182/157 161/95/158 79/181/156
f 41/52/159 81/183/160 161/95/158 80/182/157
f 42/53/88 79/181/156 161/95/158 81/183/160
f 41/52/159 82/184/161 162/96/162 81/183/160
f 22/29/82 45/143/85 162/96/162 82/184/161
f 42/53/88 81/183/160 162/96/162 45/143/85
