# This file uses centimeters as units for non-parametric coordinates.

mtllib inside_bend_LP.mtl
g default
v 1.000000 0.000000 0.000000
v 0.500000 0.000000 0.000000
v -0.000000 0.000000 0.000000
v 1.000000 1.000000 0.000000
v 0.500000 1.000000 0.000000
v 0.000000 0.500000 -0.000000
v 1.554402 1.000000 -1.520070
v 1.239161 1.000000 -1.910461
v 0.934684 0.500000 -2.311204
v 1.554402 0.000000 -1.520070
v 1.239161 0.000000 -1.910461
v 0.928869 0.000000 -2.305613
v 3.000000 1.000000 -2.000000
v 3.000000 1.000000 -2.503210
v 3.000000 0.500000 -3.000000
v 3.000000 0.000000 -2.000000
v 3.000000 0.000000 -2.503210
v 3.000000 0.000000 -3.000000
v 1.155732 1.000000 -0.867673
v 1.155732 0.000000 -0.867673
v 0.711542 0.000000 -1.076082
v 0.252699 0.000000 -1.270401
v 0.252699 0.500000 -1.270401
v 0.711542 1.000000 -1.076082
v 2.168301 1.000000 -1.889583
v 2.168301 0.000000 -1.889583
v 2.004931 0.000000 -2.378419
v 1.844207 0.000000 -2.869799
v 1.844207 0.500000 -2.869799
v 2.004931 1.000000 -2.378419
v 1.043070 1.000000 -0.451110
v 1.043070 0.000000 -0.451110
v 0.554180 0.000000 -0.550100
v 0.063787 0.000000 -0.647645
v 0.063787 0.500000 -0.647645
v 0.554180 1.000000 -0.550100
v 1.327674 0.000000 -1.227931
v 1.327674 1.000000 -1.227931
v 0.943974 1.000000 -1.536519
v 0.554934 0.500000 -1.839972
v 0.553035 0.000000 -1.838146
v 0.943974 0.000000 -1.536519
v 1.834452 1.000000 -1.739833
v 1.834452 0.000000 -1.739833
v 1.593446 0.000000 -2.190933
v 1.361644 0.000000 -2.650882
v 1.372157 0.500000 -2.660991
v 1.593446 1.000000 -2.190933
v 2.555434 0.000000 -1.975405
v 2.555434 1.000000 -1.975405
v 2.465995 1.000000 -2.473592
v 2.377949 0.500000 -2.973118
v 2.377949 0.000000 -2.973118
v 2.465995 0.000000 -2.473592
v 1.007151 1.000000 -0.182003
v 1.007151 0.000000 -0.182003
v 0.508692 0.000000 -0.221233
v 0.010234 0.000000 -0.260462
v 0.010234 0.500000 -0.260462
v 0.508692 1.000000 -0.221233
v 1.091603 0.000000 -0.665414
v 1.091603 1.000000 -0.665414
v 0.621416 1.000000 -0.818521
v 0.142946 0.500000 -0.963663
v 0.142946 0.000000 -0.963663
v 0.621416 0.000000 -0.818521
v 1.234644 1.000000 -1.055752
v 1.234644 0.000000 -1.055752
v 0.819478 0.000000 -1.316253
v 0.391988 0.000000 -1.564905
v 0.391988 0.500000 -1.564905
v 0.819478 1.000000 -1.316253
v 1.434350 0.000000 -1.382958
v 1.434350 1.000000 -1.382958
v 1.084075 1.000000 -1.734992
v 0.736274 0.500000 -2.089404
v 0.732492 0.000000 -2.085768
v 1.084075 0.000000 -1.734992
v 1.687751 1.000000 -1.638980
v 1.687751 0.000000 -1.638980
v 1.408948 0.000000 -2.062403
v 1.141386 0.000000 -2.496634
v 1.149315 0.500000 -2.504257
v 1.408948 1.000000 -2.062403
v 1.994617 0.000000 -1.823123
v 1.994617 1.000000 -1.823123
v 1.792843 1.000000 -2.296703
v 1.602899 0.500000 -2.781659
v 1.595409 0.000000 -2.774456
v 1.792843 0.000000 -2.296703
v 2.355382 1.000000 -1.940066
v 2.355382 0.000000 -1.940066
v 2.227401 0.000000 -2.435037
v 2.101869 0.000000 -2.932362
v 2.101869 0.500000 -2.932362
v 2.227401 1.000000 -2.435037
v 2.767607 0.000000 -1.996299
v 2.767607 1.000000 -1.996299
v 2.720700 1.000000 -2.495912
v 2.674189 0.500000 -2.995907
v 2.674189 0.000000 -2.995907
v 2.720700 0.000000 -2.495912
vt 0.475173 0.010765
vt 0.395381 0.010765
vt 0.714548 0.010765
vt 0.634756 0.010765
vt 0.907182 0.010765
vt 0.827390 0.010765
vt 0.827390 0.489515
vt 0.986973 0.489515
vt 0.475173 0.489515
vt 0.907182 0.489515
vt 0.348675 0.008446
vt 0.348675 0.126193
vt 0.114066 0.008446
vt 0.114066 0.242466
vt 0.231223 0.242466
vt 0.231223 0.008446
vt 0.634756 0.489515
vt 0.714548 0.489515
vt 0.395381 0.489515
vt 0.986973 0.010765
vt 0.634756 0.510625
vt 0.714548 0.510625
vt 0.714548 0.989375
vt 0.634756 0.989375
vt 0.827390 0.510625
vt 0.827390 0.989375
vt 0.317550 0.754408
vt 0.317550 0.872088
vt 0.081519 0.872088
vt 0.081519 0.754408
vt 0.197859 0.989098
vt 0.081519 0.989098
vt 0.475173 0.989375
vt 0.395381 0.989375
vt 0.395381 0.510625
vt 0.475173 0.510625
vt 0.986973 0.989375
vt 0.907182 0.989375
vt 0.907182 0.510625
vt 0.986973 0.510625
vt 0.634756 0.250140
vt 0.475173 0.250140
vt 0.395381 0.250140
vt 0.986973 0.250140
vt 0.907182 0.250140
vt 0.827390 0.250140
vt 0.714548 0.250140
vt 0.634756 0.750000
vt 0.475173 0.750000
vt 0.395381 0.750000
vt 0.986973 0.750000
vt 0.907182 0.750000
vt 0.827390 0.750000
vt 0.714548 0.750000
vt 0.634756 0.130453
vt 0.475173 0.130453
vt 0.395381 0.130453
vt 0.986973 0.130453
vt 0.907182 0.130453
vt 0.827390 0.130453
vt 0.714548 0.130453
vt 0.475173 0.369828
vt 0.634756 0.369828
vt 0.714548 0.369828
vt 0.827390 0.369828
vt 0.907182 0.369828
vt 0.395381 0.369828
vt 0.986973 0.369828
vt 0.634756 0.630313
vt 0.475173 0.630313
vt 0.395381 0.630313
vt 0.986973 0.630313
vt 0.907182 0.630313
vt 0.827390 0.630313
vt 0.714548 0.630313
vt 0.475173 0.869687
vt 0.634756 0.869687
vt 0.714548 0.869687
vt 0.827390 0.869687
vt 0.907182 0.869687
vt 0.395381 0.869687
vt 0.986973 0.869687
vt 0.634756 0.058640
vt 0.475173 0.058640
vt 0.395381 0.058640
vt 0.986973 0.058640
vt 0.907182 0.058640
vt 0.827390 0.058640
vt 0.714548 0.058640
vt 0.475173 0.190296
vt 0.634756 0.190296
vt 0.714548 0.190296
vt 0.827390 0.190296
vt 0.907182 0.190296
vt 0.395381 0.190296
vt 0.986973 0.190296
vt 0.634756 0.309984
vt 0.475173 0.309984
vt 0.395381 0.309984
vt 0.986973 0.309984
vt 0.907182 0.309984
vt 0.827390 0.309984
vt 0.714548 0.309984
vt 0.475173 0.429671
vt 0.634756 0.429671
vt 0.714548 0.429671
vt 0.827390 0.429671
vt 0.907182 0.429671
vt 0.395381 0.429671
vt 0.986973 0.429671
vt 0.634756 0.570469
vt 0.475173 0.570469
vt 0.395381 0.570469
vt 0.986973 0.570469
vt 0.907182 0.570469
vt 0.827390 0.570469
vt 0.714548 0.570469
vt 0.475173 0.690156
vt 0.634756 0.690156
vt 0.714548 0.690156
vt 0.827390 0.690156
vt 0.907182 0.690156
vt 0.395381 0.690156
vt 0.986973 0.690156
vt 0.634756 0.809844
vt 0.475173 0.809844
vt 0.395381 0.809844
vt 0.986973 0.809844
vt 0.907182 0.809844
vt 0.827390 0.809844
vt 0.714548 0.809844
vt 0.475173 0.929531
vt 0.634756 0.929531
vt 0.714548 0.929531
vt 0.827390 0.929531
vt 0.907182 0.929531
vt 0.395381 0.929531
vt 0.986973 0.929531
vn -0.000000 0.000000 1.000000
vn -0.000000 0.000000 1.000000
vn -0.000000 0.000000 1.000000
vn -0.000000 0.000000 1.000000
vn -0.000000 0.000000 1.000000
vn -0.000000 0.000000 1.000000
vn 0.000000 1.000000 0.000000
vn 0.000000 1.000000 0.000000
vn -0.485460 0.872945 -0.047913
vn -0.485140 0.874229 -0.019061
vn -0.703783 0.707040 -0.069165
vn -0.706834 0.706834 -0.027772
vn 0.000000 -1.000000 0.000000
vn 0.000000 -1.000000 0.000000
vn 0.000000 -1.000000 0.000000
vn 0.000000 -1.000000 0.000000
vn 0.000000 -1.000000 0.000000
vn 0.000000 -1.000000 0.000000
vn -0.999229 0.000000 -0.039260
vn -0.999229 0.000000 -0.039260
vn -0.995185 0.000000 -0.098017
vn -0.995185 0.000000 -0.098017
vn 0.995473 -0.000000 0.095043
vn 0.999229 0.000000 0.039260
vn 0.999229 0.000000 0.039260
vn 0.995473 -0.000000 0.095043
vn 0.000000 1.000000 0.000000
vn 0.000000 1.000000 0.000000
vn -0.307972 0.870465 -0.383984
vn -0.317729 0.879606 -0.354037
vn -0.434760 0.712571 -0.550660
vn -0.471374 0.708471 -0.525239
vn 1.000000 0.000000 0.000000
vn 1.000000 0.000000 0.000000
vn 1.000000 0.000000 0.000000
vn 1.000000 0.000000 0.000000
vn 1.000000 0.000000 0.000000
vn 1.000000 0.000000 0.000000
vn 0.000000 -1.000000 0.000000
vn 0.000000 -1.000000 0.000000
vn 0.000000 -1.000000 0.000000
vn 0.000000 -1.000000 0.000000
vn 0.000000 -1.000000 0.000000
vn 0.000000 -1.000000 0.000000
vn -0.668619 -0.000638 -0.743605
vn -0.668619 -0.000638 -0.743605
vn -0.623412 -0.002257 -0.781890
vn -0.624722 -0.002212 -0.780844
vn 0.617342 0.000000 0.786695
vn 0.665545 0.000000 0.746358
vn 0.665545 0.000000 0.746358
vn 0.617342 0.000000 0.786695
vn 0.752360 0.000000 0.658752
vn 0.752360 0.000000 0.658752
vn 0.789995 0.000000 0.613113
vn 0.789995 0.000000 0.613113
vn 0.000000 -1.000000 0.000000
vn 0.000000 -1.000000 0.000000
vn 0.000000 -1.000000 0.000000
vn 0.000000 -1.000000 0.000000
vn 0.000000 -1.000000 0.000000
vn 0.000000 -1.000000 0.000000
vn -0.778782 0.001201 -0.627294
vn -0.745551 0.001005 -0.666448
vn -0.745551 0.001005 -0.666448
vn -0.779203 0.001203 -0.626770
vn -0.394908 0.863573 -0.313512
vn -0.391473 0.851710 -0.348338
vn -0.531094 0.703287 -0.472574
vn -0.554848 0.702544 -0.445617
vn 0.000000 1.000000 0.000000
vn 0.000000 1.000000 0.000000
vn 0.015922 0.000000 0.999873
vn 0.015922 0.000000 0.999873
vn 0.055239 0.000000 0.998473
vn 0.055239 0.000000 0.998473
vn 0.000000 -1.000000 0.000000
vn 0.000000 -1.000000 0.000000
vn 0.000000 -1.000000 0.000000
vn 0.000000 -1.000000 0.000000
vn 0.000000 -1.000000 0.000000
vn 0.000000 -1.000000 0.000000
vn -0.043174 0.000000 -0.999068
vn -0.012563 0.000000 -0.999921
vn -0.012563 0.000000 -0.999921
vn -0.043174 0.000000 -0.999068
vn -0.023221 0.876916 -0.480082
vn -0.009055 0.876688 -0.480975
vn -0.013326 0.706215 -0.707872
vn -0.034958 0.708062 -0.705284
vn 0.000000 1.000000 0.000000
vn 0.000000 1.000000 0.000000
vn 0.938941 0.000000 0.344078
vn 0.965318 0.000000 0.261076
vn 0.965318 0.000000 0.261076
vn 0.938941 0.000000 0.344078
vn 0.000000 -1.000000 0.000000
vn 0.000000 -1.000000 0.000000
vn 0.000000 -1.000000 0.000000
vn 0.000000 -1.000000 0.000000
vn 0.000000 -1.000000 0.000000
vn 0.000000 -1.000000 0.000000
vn -0.956940 0.000000 -0.290285
vn -0.923880 0.000000 -0.382683
vn -0.923880 0.000000 -0.382683
vn -0.956940 0.000000 -0.290285
vn -0.471641 0.870261 -0.142132
vn -0.460914 0.867458 -0.187285
vn -0.656664 0.705232 -0.267284
vn -0.677369 0.706739 -0.204184
vn 0.000000 1.000000 0.000000
vn 0.000000 1.000000 0.000000
vn 0.902480 0.000000 0.430732
vn 0.902480 0.000000 0.430732
vn 0.000000 1.000000 0.000000
vn -0.446623 0.864344 -0.231166
vn -0.631124 0.702798 -0.328265
vn -0.883639 0.000349 -0.468169
vn -0.883639 0.000349 -0.468169
vn 0.000000 -1.000000 0.000000
vn 0.000000 -1.000000 0.000000
vn 0.000000 -1.000000 0.000000
vn 0.308357 0.000000 0.951271
vn 0.409269 0.000000 0.912414
vn 0.409269 0.000000 0.912414
vn 0.308357 0.000000 0.951271
vn 0.000000 -1.000000 0.000000
vn 0.000000 -1.000000 0.000000
vn 0.000000 -1.000000 0.000000
vn 0.000000 -1.000000 0.000000
vn 0.000000 -1.000000 0.000000
vn 0.000000 -1.000000 0.000000
vn -0.408173 -0.005527 -0.912888
vn -0.293430 -0.002050 -0.955978
vn -0.293430 -0.002050 -0.955978
vn -0.409602 -0.005562 -0.912247
vn -0.195055 0.879991 -0.433093
vn -0.140058 0.880610 -0.452670
vn -0.205942 0.719040 -0.663754
vn -0.282984 0.720513 -0.633073
vn 0.000000 1.000000 0.000000
vn 0.000000 1.000000 0.000000
vn 0.216432 0.000000 0.976298
vn 0.216432 0.000000 0.976298
vn 0.000000 1.000000 0.000000
vn -0.092465 0.880207 -0.465495
vn -0.137489 0.715507 -0.684942
vn -0.190048 0.000000 -0.981775
vn -0.190048 0.000000 -0.981775
vn 0.000000 -1.000000 0.000000
vn 0.000000 -1.000000 0.000000
vn 0.000000 -1.000000 0.000000
vn 0.985081 -0.000000 0.172094
vn 0.985081 -0.000000 0.172094
vn 0.000000 -1.000000 0.000000
vn 0.000000 -1.000000 0.000000
vn 0.000000 -1.000000 0.000000
vn -0.982653 0.000000 -0.185452
vn -0.982653 0.000000 -0.185452
vn -0.481616 0.871662 -0.090836
vn -0.694841 0.707090 -0.131222
vn 0.000000 1.000000 0.000000
vn 0.853575 0.000000 0.520969
vn 0.853575 0.000000 0.520969
vn 0.000000 -1.000000 0.000000
vn 0.000000 -1.000000 0.000000
vn 0.000000 -1.000000 0.000000
vn -0.836414 0.001043 -0.548097
vn -0.836583 0.001041 -0.547840
vn -0.425127 0.862923 -0.273187
vn -0.598190 0.701349 -0.387658
vn 0.000000 1.000000 0.000000
vn 0.514543 0.000000 0.857465
vn 0.514543 0.000000 0.857465
vn 0.000000 -1.000000 0.000000
vn 0.000000 -1.000000 0.000000
vn 0.000000 -1.000000 0.000000
vn -0.520847 -0.005447 -0.853632
vn -0.522823 -0.005392 -0.852424
vn -0.252551 0.876178 -0.410524
vn -0.360904 0.718173 -0.594958
vn 0.000000 1.000000 0.000000
vn 0.135163 0.000000 0.990823
vn 0.135163 0.000000 0.990823
vn 0.000000 -1.000000 0.000000
vn 0.000000 -1.000000 0.000000
vn 0.000000 -1.000000 0.000000
vn -0.110351 0.000000 -0.993893
vn -0.110351 0.000000 -0.993893
vn -0.055024 0.878493 -0.474577
vn -0.082187 0.711692 -0.697668
vn 0.000000 1.000000 0.000000
s 1
g inside_bend
usemtl initialShadingGroup
f 1/13/1 4/14/2 5/15/3 2/16/4
f 2/16/4 5/15/3 6/12/5 3/11/6
s 2
f 4/4/7 55/83/8 60/89/9 5/3/10
f 5/3/10 60/89/9 59/88/11 6/6/12
s 3
f 56/84/13 1/1/14 2/2/15 57/85/16
f 57/86/16 2/20/15 3/5/17 58/87/18
s 4
f 3/5/19 6/6/20 59/88/21 58/87/22
s 5
f 55/83/23 4/4/24 1/1/25 56/84/26
s 6
f 7/21/27 79/111/28 84/117/29 8/22/30
f 8/22/30 84/117/29 83/116/31 9/25/32
s 7
f 13/27/33 16/30/34 17/29/35 14/28/36
f 14/28/36 17/29/35 18/32/37 15/31/38
s 8
f 80/112/39 10/36/40 11/35/41 81/113/42
f 81/114/42 11/40/41 12/39/43 82/115/44
s 9
f 12/39/45 9/25/46 83/116/47 82/115/48
s 10
f 79/111/49 7/21/50 10/36/51 80/112/52
s 5
f 10/9/53 7/17/54 74/105/55 73/104/56
s 3
f 10/9/57 73/104/58 78/109/59 11/19/60
f 11/8/60 78/110/59 77/108/61 12/10/62
s 4
f 76/107/63 9/7/64 12/10/65 77/108/66
s 2
f 75/106/67 8/18/68 9/7/69 76/107/70
f 74/105/71 7/17/72 8/18/68 75/106/67
s 10
f 16/33/73 13/24/74 98/133/75 97/132/76
s 8
f 16/33/77 97/132/78 102/137/79 17/34/80
f 17/37/80 102/138/79 101/136/81 18/38/82
s 9
f 100/135/83 15/26/84 18/38/85 101/136/86
s 6
f 99/134/87 14/23/88 15/26/89 100/135/90
f 98/133/91 13/24/92 14/23/88 99/134/87
s 5
f 19/41/93 62/91/94 61/90/95 20/42/96
s 3
f 20/42/97 61/90/98 66/95/99 21/43/100
f 21/44/100 66/96/99 65/94/101 22/45/102
s 4
f 64/93/103 23/46/104 22/45/105 65/94/106
s 2
f 63/92/107 24/47/108 23/46/109 64/93/110
f 62/91/111 19/41/112 24/47/108 63/92/107
s 5
f 67/97/113 19/41/93 20/42/96 68/98/114
s 2
f 19/41/112 67/97/115 72/103/116 24/47/108
f 24/47/108 72/103/116 71/102/117 23/46/109
s 4
f 23/46/104 71/102/118 70/101/119 22/45/105
s 3
f 69/100/120 21/44/100 22/45/102 70/101/121
f 68/98/122 20/42/97 21/43/100 69/99/120
s 10
f 25/48/123 86/119/124 85/118/125 26/49/126
s 8
f 26/49/127 85/118/128 90/123/129 27/50/130
f 27/51/130 90/124/129 89/122/131 28/52/132
s 9
f 88/121/133 29/53/134 28/52/135 89/122/136
s 6
f 87/120/137 30/54/138 29/53/139 88/121/140
f 86/119/141 25/48/142 30/54/138 87/120/137
s 10
f 91/125/143 25/48/123 26/49/126 92/126/144
s 6
f 25/48/142 91/125/145 96/131/146 30/54/138
f 30/54/138 96/131/146 95/130/147 29/53/139
s 9
f 29/53/134 95/130/148 94/129/149 28/52/135
s 8
f 93/128/150 27/51/130 28/52/132 94/129/151
f 92/126/152 26/49/127 27/50/130 93/127/150
s 5
f 31/55/153 55/83/23 56/84/26 32/56/154
s 3
f 32/56/155 56/84/13 57/85/16 33/57/156
f 33/58/156 57/86/16 58/87/18 34/59/157
s 4
f 59/88/21 35/60/158 34/59/159 58/87/22
s 2
f 60/89/9 36/61/160 35/60/161 59/88/11
f 55/83/8 31/55/162 36/61/160 60/89/9
s 5
f 62/91/94 31/55/153 32/56/154 61/90/95
s 2
f 31/55/162 62/91/111 63/92/107 36/61/160
f 36/61/160 63/92/107 64/93/110 35/60/161
s 4
f 35/60/158 64/93/103 65/94/106 34/59/159
s 3
f 66/96/99 33/58/156 34/59/157 65/94/101
f 61/90/98 32/56/155 33/57/156 66/95/99
s 5
f 38/63/163 67/97/113 68/98/114 37/62/164
s 3
f 37/62/165 68/98/122 69/99/120 42/67/166
f 42/68/166 69/100/120 70/101/121 41/66/167
s 4
f 71/102/118 40/65/168 41/66/169 70/101/119
s 2
f 72/103/116 39/64/170 40/65/171 71/102/117
f 67/97/115 38/63/172 39/64/170 72/103/116
s 5
f 74/105/55 38/63/163 37/62/164 73/104/56
s 2
f 38/63/172 74/105/71 75/106/67 39/64/170
f 39/64/170 75/106/67 76/107/70 40/65/171
s 4
f 40/65/168 76/107/63 77/108/66 41/66/169
s 3
f 78/110/59 42/68/166 41/66/167 77/108/61
f 73/104/58 37/62/165 42/67/166 78/109/59
s 10
f 43/69/173 79/111/49 80/112/52 44/70/174
s 8
f 44/70/175 80/112/39 81/113/42 45/71/176
f 45/72/176 81/114/42 82/115/44 46/73/177
s 9
f 83/116/47 47/74/178 46/73/179 82/115/48
s 6
f 84/117/29 48/75/180 47/74/181 83/116/31
f 79/111/28 43/69/182 48/75/180 84/117/29
s 10
f 86/119/124 43/69/173 44/70/174 85/118/125
s 6
f 43/69/182 86/119/141 87/120/137 48/75/180
f 48/75/180 87/120/137 88/121/140 47/74/181
s 9
f 47/74/178 88/121/133 89/122/136 46/73/179
s 8
f 90/124/129 45/72/176 46/73/177 89/122/131
f 85/118/128 44/70/175 45/71/176 90/123/129
s 10
f 50/77/183 91/125/143 92/126/144 49/76/184
s 8
f 49/76/185 92/126/152 93/127/150 54/81/186
f 54/82/186 93/128/150 94/129/151 53/80/187
s 9
f 95/130/148 52/79/188 53/80/189 94/129/149
s 6
f 96/131/146 51/78/190 52/79/191 95/130/147
f 91/125/145 50/77/192 51/78/190 96/131/146
s 10
f 98/133/75 50/77/183 49/76/184 97/132/76
s 6
f 50/77/192 98/133/91 99/134/87 51/78/190
f 51/78/190 99/134/87 100/135/90 52/79/191
s 9
f 52/79/188 100/135/83 101/136/86 53/80/189
s 8
f 102/138/79 54/82/186 53/80/187 101/136/81
f 97/132/78 49/76/185 54/81/186 102/137/79
