# This file uses centimeters as units for non-parametric coordinates.

mtllib inside_corner_LP.mtl
g default
v 3.000000 0.000000 -2.000000
v 3.000000 0.000000 -2.500000
v 3.000000 0.000000 -3.000000
v 3.000000 1.000000 -2.000000
v 3.000000 1.000000 -2.500000
v 3.000000 0.500000 -3.000000
v -0.000000 0.500000 -3.000000
v -0.000000 0.000000 -3.000000
v 0.500893 1.000000 -2.503542
v 1.001900 1.000000 -2.007199
v 1.000000 0.000000 -1.999691
v 0.500000 0.000000 -2.499846
v 1.000000 1.000000 0.000000
v 0.500000 1.000000 0.000000
v -0.000000 0.500000 0.000000
v 1.000000 0.000000 0.000000
v 0.500000 0.000000 0.000000
v -0.000000 0.000000 0.000000
vt 0.475173 0.510655
vt 0.395381 0.510655
vt 0.714548 0.510655
vt 0.634756 0.510655
vt 0.907182 0.510655
vt 0.827390 0.510655
vt 0.827390 0.989405
vt 0.907182 0.989405
vt 0.348675 0.508336
vt 0.348675 0.626083
vt 0.114066 0.508336
vt 0.114066 0.742356
vt 0.231223 0.742356
vt 0.231223 0.508336
vt 0.986973 0.510655
vt 0.714548 0.909328
vt 0.634756 0.829215
vt 0.475173 0.829822
vt 0.395381 0.909613
vt 0.986973 0.909613
vt 0.317550 0.254548
vt 0.317550 0.372228
vt 0.081519 0.372228
vt 0.081519 0.254548
vt 0.197859 0.489238
vt 0.081519 0.489238
vt 0.475173 0.489515
vt 0.395381 0.489515
vt 0.395381 0.090606
vt 0.475173 0.170447
vt 0.986973 0.489515
vt 0.907182 0.489515
vt 0.907182 0.010765
vt 0.986973 0.090606
vt 0.827390 0.489515
vt 0.827390 0.010765
vt 0.714548 0.089426
vt 0.714548 0.489515
vt 0.634756 0.168051
vt 0.634756 0.489515
vn 1.000000 0.000000 0.000000
vn 1.000000 0.000000 0.000000
vn 1.000000 0.000000 0.000000
vn 1.000000 0.000000 0.000000
vn 1.000000 0.000000 0.000000
vn 1.000000 0.000000 0.000000
vn 0.000000 1.000000 -0.000000
vn 0.000311 0.875434 -0.483338
vn 0.000395 0.789364 -0.613926
vn 0.000000 1.000000 -0.000000
vn 0.000456 0.705736 -0.708474
vn 0.000456 0.705736 -0.708474
vn 0.000000 0.000000 -1.000000
vn 0.000000 0.000000 -1.000000
vn 0.000000 0.000000 -1.000000
vn 0.000000 0.000000 -1.000000
vn -0.001723 0.003755 0.999991
vn -0.001723 0.003755 0.999991
vn -0.001723 0.003755 0.999991
vn -0.001723 0.003755 0.999991
vn 0.000000 -1.000000 0.000000
vn 0.000000 -1.000000 0.000000
vn 0.000000 -1.000000 0.000000
vn 0.000000 -1.000000 0.000000
vn 0.000000 -1.000000 0.000000
vn 0.000000 -1.000000 0.000000
vn 0.000000 0.000000 1.000000
vn 0.000000 0.000000 1.000000
vn 0.000000 0.000000 1.000000
vn 0.000000 0.000000 1.000000
vn 0.000000 0.000000 1.000000
vn 0.000000 0.000000 1.000000
vn 0.000000 -1.000000 0.000000
vn 0.000000 -1.000000 0.000000
vn 0.000000 -1.000000 0.000000
vn -1.000000 0.000000 -0.000000
vn -1.000000 0.000000 -0.000000
vn -1.000000 0.000000 -0.000000
vn -1.000000 0.000000 -0.000000
vn -0.610232 0.792223 -0.000099
vn -0.706763 0.707451 -0.000115
vn -0.706763 0.707451 -0.000115
vn -0.481277 0.876569 -0.000078
vn 0.000000 1.000000 0.000000
vn 0.000000 1.000000 0.000000
vn 0.999999 -0.000948 0.000474
vn 0.999999 -0.000948 0.000474
vn 1.000000 -0.000948 0.000474
vn 0.999999 -0.000948 0.000474
s 1
g inside_corner
usemtl initialShadingGroup
f 1/11/1 2/14/2 5/13/3 4/12/4
f 2/14/2 3/9/5 6/10/6 5/13/3
s 2
f 4/4/7 5/3/8 9/16/9 10/17/10
f 5/3/8 6/6/11 7/7/12 9/16/9
s off
f 3/5/13 8/8/14 7/7/15 6/6/16
f 10/17/17 11/18/18 1/1/19 4/4/20
s 3
f 12/20/21 8/8/22 3/5/23 2/15/24
f 11/18/25 12/19/21 2/2/24 1/1/26
s 4
f 13/21/27 14/22/28 17/23/29 16/24/30
f 14/22/28 15/25/31 18/26/32 17/23/29
s 3
f 16/27/33 17/28/34 12/29/21 11/30/25
f 17/31/34 18/32/35 8/33/22 12/34/21
s off
f 8/33/36 18/32/37 15/35/38 7/36/39
s 5
f 9/37/40 7/36/41 15/35/42 14/38/43
f 10/39/44 9/37/40 14/38/43 13/40/45
s off
f 16/27/46 11/30/47 10/39/48 13/40/49
