# This file uses centimeters as units for non-parametric coordinates.

mtllib outside_bend_LP.mtl
g default
v -1.000000 0.000000 0.000000
v -0.500000 0.000000 0.000008
v -0.002930 0.000000 0.002914
v -1.000000 3.000000 0.000000
v -0.500000 3.000000 0.000007
v -0.002930 2.000001 0.002914
v 0.164811 3.000000 -2.953770
v 0.490410 3.000000 -2.572449
v 0.816562 2.000001 -2.191866
v 0.161016 0.000000 -2.950035
v 0.485991 0.000000 -2.568101
v 0.816562 0.000000 -2.191799
v 3.000000 3.000000 -3.999528
v 3.000000 3.000000 -3.499613
v 3.000000 2.000001 -3.000057
v 3.000000 0.000000 -3.999516
v 3.000000 0.000000 -3.499600
v 3.000000 0.000000 -2.999943
v -0.684180 3.000000 -1.640045
v -0.685347 0.000000 -1.638893
v -0.240473 0.000000 -1.430546
v 0.201438 0.000000 -1.219281
v 0.201438 2.000001 -1.219311
v -0.238635 3.000000 -1.432356
v 1.426433 3.000000 -3.750226
v 1.426433 0.000000 -3.750216
v 1.602266 0.000000 -3.272942
v 1.779683 0.000000 -2.797459
v 1.779683 2.000001 -2.797559
v 1.603373 3.000000 -3.274042
v -0.916998 3.000000 -0.842722
v -0.916998 0.000000 -0.842721
v -0.433074 0.000000 -0.738748
v 0.044591 0.000000 -0.628547
v 0.044591 2.000001 -0.628560
v -0.432322 3.000000 -0.739491
v -0.321867 0.000000 -2.349913
v -0.319446 3.000000 -2.352298
v 0.072141 3.000000 -2.050472
v 0.461236 2.000001 -1.746308
v 0.461236 0.000000 -1.746260
v 0.069050 0.000000 -2.047429
v 0.750989 3.000000 -3.422459
v 0.750989 0.000000 -3.422450
v 1.000613 0.000000 -2.978829
v 1.259235 0.000000 -2.544238
v 1.259235 2.000001 -2.544323
v 1.006300 3.000000 -2.984425
v 2.179364 0.000000 -3.938620
v 2.179364 3.000000 -3.938632
v 2.272179 3.000000 -3.443620
v 2.365534 2.000001 -2.949490
v 2.365534 0.000000 -2.949379
v 2.272179 0.000000 -3.443607
v -0.986684 3.000000 -0.338919
v -0.986684 0.000000 -0.338919
v -0.488842 0.000000 -0.299066
v 0.002621 0.000000 -0.252905
v 0.002621 2.000001 -0.252909
v -0.488636 3.000000 -0.299270
v -0.818502 0.000000 -1.249436
v -0.817886 3.000000 -1.250045
v -0.350694 3.000000 -1.093657
v 0.109714 2.000001 -0.930576
v 0.109714 0.000000 -0.930554
v -0.351964 0.000000 -1.092404
v -0.517519 3.000000 -2.008623
v -0.519327 0.000000 -2.006840
v -0.099740 0.000000 -1.749855
v 0.318915 0.000000 -1.491983
v 0.318915 2.000001 -1.492022
v -0.097292 3.000000 -1.752269
v -0.094601 0.000000 -2.665079
v -0.091499 3.000000 -2.668132
v 0.268448 3.000000 -2.324523
v 0.627448 2.000001 -1.980137
v 0.627448 0.000000 -1.980079
v 0.264695 0.000000 -2.320830
v 0.447657 3.000000 -3.207107
v 0.443520 0.000000 -3.203036
v 0.731719 0.000000 -2.787774
v 1.027532 0.000000 -2.380155
v 1.027532 2.000001 -2.380231
v 0.736789 3.000000 -2.792762
v 1.077641 0.000000 -3.603418
v 1.077641 3.000000 -3.603428
v 1.296344 3.000000 -3.145607
v 1.510425 2.000001 -2.683546
v 1.510425 0.000000 -2.683453
v 1.291307 0.000000 -3.140650
v 1.794135 3.000000 -3.861602
v 1.794135 0.000000 -3.861590
v 1.929231 0.000000 -3.373218
v 2.065361 0.000000 -2.886109
v 2.065361 2.000001 -2.886215
v 1.929231 3.000000 -3.373230
v 2.582231 0.000000 -3.984356
v 2.582231 3.000000 -3.984368
v 2.630016 3.000000 -3.485643
v 2.677948 2.000001 -2.987421
v 2.677948 0.000000 -2.987308
v 2.630016 0.000000 -3.485631
vt 0.475173 0.010765
vt 0.395381 0.010765
vt 0.714548 0.010765
vt 0.634756 0.010765
vt 0.907182 0.010765
vt 0.827390 0.010765
vt 0.827390 0.489515
vt 0.986973 0.489515
vt 0.475173 0.489515
vt 0.907182 0.489515
vt 0.348675 0.008446
vt 0.348675 0.126193
vt 0.114066 0.008446
vt 0.114066 0.242466
vt 0.231223 0.242466
vt 0.231223 0.008446
vt 0.634756 0.489515
vt 0.714548 0.489515
vt 0.395381 0.489515
vt 0.986973 0.010765
vt 0.634756 0.510625
vt 0.714548 0.510625
vt 0.714548 0.989375
vt 0.634756 0.989375
vt 0.827390 0.510625
vt 0.827390 0.989375
vt 0.317550 0.754408
vt 0.317550 0.872088
vt 0.081519 0.872088
vt 0.081519 0.754408
vt 0.197859 0.989098
vt 0.081519 0.989098
vt 0.475173 0.989375
vt 0.395381 0.989375
vt 0.395381 0.510625
vt 0.475173 0.510625
vt 0.986973 0.989375
vt 0.907182 0.989375
vt 0.907182 0.510625
vt 0.986973 0.510625
vt 0.634756 0.250140
vt 0.475173 0.250140
vt 0.395381 0.250140
vt 0.986973 0.250140
vt 0.907182 0.250140
vt 0.827390 0.250140
vt 0.714548 0.250140
vt 0.634756 0.750000
vt 0.475173 0.750000
vt 0.395381 0.750000
vt 0.986973 0.750000
vt 0.907182 0.750000
vt 0.827390 0.750000
vt 0.714548 0.750000
vt 0.634756 0.130453
vt 0.475173 0.130453
vt 0.395381 0.130453
vt 0.986973 0.130453
vt 0.907182 0.130453
vt 0.827390 0.130453
vt 0.714548 0.130453
vt 0.475173 0.369828
vt 0.634756 0.369828
vt 0.714548 0.369828
vt 0.827390 0.369828
vt 0.907182 0.369828
vt 0.395381 0.369828
vt 0.986973 0.369828
vt 0.634756 0.630313
vt 0.475173 0.630313
vt 0.395381 0.630313
vt 0.986973 0.630313
vt 0.907182 0.630313
vt 0.827390 0.630313
vt 0.714548 0.630313
vt 0.475173 0.869687
vt 0.634756 0.869687
vt 0.714548 0.869687
vt 0.827390 0.869687
vt 0.907182 0.869687
vt 0.395381 0.869687
vt 0.986973 0.869687
vt 0.634756 0.058640
vt 0.475173 0.058640
vt 0.395381 0.058640
vt 0.986973 0.058640
vt 0.907182 0.058640
vt 0.827390 0.058640
vt 0.714548 0.058640
vt 0.475173 0.190296
vt 0.634756 0.190296
vt 0.714548 0.190296
vt 0.827390 0.190296
vt 0.907182 0.190296
vt 0.395381 0.190296
vt 0.986973 0.190296
vt 0.634756 0.309984
vt 0.475173 0.309984
vt 0.395381 0.309984
vt 0.986973 0.309984
vt 0.907182 0.309984
vt 0.827390 0.309984
vt 0.714548 0.309984
vt 0.475173 0.429671
vt 0.634756 0.429671
vt 0.714548 0.429671
vt 0.827390 0.429671
vt 0.907182 0.429671
vt 0.395381 0.429671
vt 0.986973 0.429671
vt 0.634756 0.570469
vt 0.475173 0.570469
vt 0.395381 0.570469
vt 0.986973 0.570469
vt 0.907182 0.570469
vt 0.827390 0.570469
vt 0.714548 0.570469
vt 0.475173 0.690156
vt 0.634756 0.690156
vt 0.714548 0.690156
vt 0.827390 0.690156
vt 0.907182 0.690156
vt 0.395381 0.690156
vt 0.986973 0.690156
vt 0.634756 0.809844
vt 0.475173 0.809844
vt 0.395381 0.809844
vt 0.986973 0.809844
vt 0.907182 0.809844
vt 0.827390 0.809844
vt 0.714548 0.809844
vt 0.475173 0.929531
vt 0.634756 0.929531
vt 0.714548 0.929531
vt 0.827390 0.929531
vt 0.907182 0.929531
vt 0.395381 0.929531
vt 0.986973 0.929531
vn -0.000015 0.000000 1.000000
vn -0.002657 0.000000 0.999996
vn -0.001156 0.000000 0.999999
vn -0.000015 0.000000 1.000000
vn -0.005847 0.000000 0.999983
vn -0.005847 0.000000 0.999983
vn 0.000000 1.000000 0.000000
vn 0.676291 0.736347 0.020608
vn 0.673099 0.737379 0.056655
vn 0.000000 1.000000 0.000000
vn 0.895909 0.443398 0.027300
vn 0.894015 0.441745 0.074824
vn 0.000000 -1.000000 0.000000
vn 0.000000 -1.000000 0.000000
vn 0.000000 -1.000000 0.000000
vn 0.000000 -1.000000 0.000000
vn 0.000000 -1.000000 0.000000
vn 0.000000 -1.000000 0.000000
vn 0.999765 0.000000 0.021695
vn 0.997180 0.000000 0.075044
vn 0.997180 0.000000 0.075044
vn 0.999765 0.000000 0.021695
vn -0.995185 -0.000000 -0.098019
vn -0.995185 -0.000000 -0.098019
vn -0.999229 0.000000 -0.039260
vn -0.999229 0.000000 -0.039260
vn 0.000000 1.000000 0.000000
vn 0.454965 0.730598 0.509150
vn 0.415936 0.744226 0.522614
vn 0.000000 1.000000 0.000000
vn 0.595677 0.448089 0.666622
vn 0.557449 0.449974 0.697691
vn 1.000000 0.000000 0.000000
vn 1.000000 0.000000 0.000000
vn 1.000000 0.000000 0.000000
vn 1.000000 0.000000 0.000000
vn 1.000000 0.000000 0.000000
vn 1.000000 0.000000 0.000000
vn 0.000000 -1.000000 0.000000
vn 0.000000 -1.000000 0.000000
vn 0.000000 -1.000000 0.000000
vn 0.000000 -1.000000 0.000000
vn 0.000000 -1.000000 0.000000
vn 0.000000 -1.000000 0.000000
vn 0.666004 0.000027 0.745949
vn 0.622872 0.000030 0.782324
vn 0.622871 0.000030 0.782325
vn 0.666004 0.000027 0.745949
vn -0.624717 -0.000121 -0.780851
vn -0.624824 -0.000121 -0.780766
vn -0.667161 -0.000087 -0.744914
vn -0.667161 -0.000087 -0.744914
vn -0.744336 0.000100 -0.667806
vn -0.779041 0.000159 -0.626973
vn -0.778980 0.000159 -0.627049
vn -0.744336 0.000100 -0.667806
vn 0.000000 -1.000000 0.000000
vn 0.000000 -1.000000 0.000000
vn 0.000000 -1.000000 0.000000
vn 0.000000 -1.000000 0.000000
vn 0.000000 -1.000000 0.000000
vn 0.000000 -1.000000 0.000000
vn 0.781820 0.000018 0.623504
vn 0.781821 0.000018 0.623502
vn 0.745809 0.000021 0.666160
vn 0.745809 0.000021 0.666160
vn 0.524224 0.740605 0.420349
vn 0.700590 0.444056 0.558559
vn 0.667506 0.445060 0.596957
vn 0.489498 0.754158 0.437763
vn 0.000000 1.000000 0.000000
vn 0.000000 1.000000 0.000000
vn -0.036263 -0.000004 -0.999342
vn -0.074002 -0.000004 -0.997258
vn -0.074002 -0.000004 -0.997258
vn -0.036263 -0.000004 -0.999342
vn 0.000000 -1.000000 0.000000
vn 0.000000 -1.000000 0.000000
vn 0.000000 -1.000000 0.000000
vn 0.000000 -1.000000 0.000000
vn 0.000000 -1.000000 0.000000
vn 0.000000 -1.000000 0.000000
vn 0.079446 0.000056 0.996839
vn 0.079446 0.000056 0.996839
vn 0.039205 0.000057 0.999231
vn 0.039205 0.000057 0.999231
vn 0.052831 0.737265 0.673535
vn 0.069573 0.447669 0.891489
vn 0.034369 0.446814 0.893966
vn 0.025992 0.736379 0.676069
vn 0.000000 1.000000 0.000000
vn 0.000000 1.000000 0.000000
vn -0.929913 0.000218 -0.367779
vn -0.929924 0.000218 -0.367751
vn -0.960051 0.000131 -0.279826
vn -0.960047 0.000131 -0.279840
vn 0.000000 -1.000000 0.000000
vn 0.000000 -1.000000 0.000000
vn 0.000000 -1.000000 0.000000
vn 0.000000 -1.000000 0.000000
vn 0.000000 -1.000000 0.000000
vn 0.000000 -1.000000 0.000000
vn 0.966513 0.000003 0.256618
vn 0.966513 0.000003 0.256617
vn 0.937062 0.000005 0.349164
vn 0.937061 0.000005 0.349165
vn 0.653317 0.735610 0.179039
vn 0.867425 0.438088 0.235909
vn 0.840969 0.438027 0.317654
vn 0.633213 0.735525 0.240925
vn 0.000000 1.000000 -0.000000
vn 0.000000 1.000000 -0.000000
vn -0.890230 0.000258 -0.455512
vn -0.890253 0.000258 -0.455467
vn 0.605070 0.736468 0.302499
vn 0.000000 1.000000 0.000000
vn 0.804687 0.439150 0.399533
vn 0.896930 0.000009 0.442173
vn 0.896930 0.000009 0.442174
vn 0.000000 -1.000000 0.000000
vn 0.000000 -1.000000 0.000000
vn 0.000000 -1.000000 0.000000
vn -0.338993 -0.000003 -0.940789
vn -0.338993 -0.000003 -0.940789
vn -0.436574 -0.000003 -0.899669
vn -0.436574 -0.000003 -0.899669
vn 0.000000 -1.000000 0.000000
vn 0.000000 -1.000000 0.000000
vn 0.000000 -1.000000 0.000000
vn 0.000000 -1.000000 0.000000
vn 0.000000 -1.000000 0.000000
vn 0.000000 -1.000000 0.000000
vn 0.437518 0.000042 0.899210
vn 0.437519 0.000042 0.899209
vn 0.343040 0.000047 0.939321
vn 0.343039 0.000047 0.939321
vn 0.291297 0.745001 0.600099
vn 0.389683 0.453430 0.801591
vn 0.303621 0.452868 0.838287
vn 0.227877 0.743416 0.628812
vn 0.000000 1.000000 0.000000
vn 0.000000 1.000000 0.000000
vn -0.242744 -0.000004 -0.970090
vn -0.242744 -0.000004 -0.970090
vn 0.166881 0.741056 0.650374
vn 0.000000 1.000000 0.000000
vn 0.221324 0.451167 0.864560
vn 0.251021 0.000051 0.967982
vn 0.251020 0.000051 0.967982
vn 0.000000 -1.000000 0.000000
vn 0.000000 -1.000000 0.000000
vn 0.000000 -1.000000 0.000000
vn -0.983317 0.000034 -0.181901
vn -0.983317 0.000034 -0.181901
vn 0.000000 -1.000000 0.000000
vn 0.000000 -1.000000 0.000000
vn 0.000000 -1.000000 0.000000
vn 0.987742 0.000001 0.156097
vn 0.987742 0.000001 0.156097
vn 0.886143 0.439587 0.146677
vn 0.665619 0.737946 0.111296
vn 0.000000 1.000000 0.000000
vn -0.840106 0.000241 -0.542422
vn -0.840146 0.000241 -0.542361
vn 0.000000 -1.000000 0.000000
vn 0.000000 -1.000000 0.000000
vn 0.000000 -1.000000 0.000000
vn 0.845289 0.000013 0.534309
vn 0.845288 0.000013 0.534310
vn 0.757949 0.441267 0.480413
vn 0.568660 0.738269 0.362747
vn 0.000000 1.000000 0.000000
vn -0.533189 -0.000079 -0.845996
vn -0.533189 -0.000079 -0.845996
vn 0.000000 -1.000000 0.000000
vn 0.000000 -1.000000 0.000000
vn 0.000000 -1.000000 0.000000
vn 0.531887 0.000036 0.846815
vn 0.531886 0.000036 0.846816
vn 0.475568 0.452287 0.754501
vn 0.355211 0.744594 0.565159
vn 0.000000 1.000000 0.000000
vn -0.153919 -0.000004 -0.988083
vn -0.153919 -0.000004 -0.988083
vn 0.000000 -1.000000 0.000000
vn 0.000000 -1.000000 0.000000
vn 0.000000 -1.000000 0.000000
vn 0.162996 0.000054 0.986627
vn 0.162996 0.000054 0.986627
vn 0.143191 0.449210 0.881877
vn 0.108422 0.738769 0.665180
vn 0.000000 1.000000 0.000000
s 1
g outside_bend
usemtl initialShadingGroup
f 1/13/1 2/16/2 5/15/3 4/14/4
f 2/16/2 3/11/5 6/12/6 5/15/3
s 2
f 4/4/7 5/3/8 60/89/9 55/83/10
f 5/3/8 6/6/11 59/88/12 60/89/9
s 3
f 56/84/13 57/85/14 2/2/15 1/1/16
f 57/86/14 58/87/17 3/5/18 2/20/15
s 4
f 3/5/19 58/87/20 59/88/21 6/6/22
s 5
f 55/83/23 56/84/24 1/1/25 4/4/26
s 6
f 7/21/27 8/22/28 84/117/29 79/111/30
f 8/22/28 9/25/31 83/116/32 84/117/29
s 7
f 13/27/33 14/28/34 17/29/35 16/30/36
f 14/28/34 15/31/37 18/32/38 17/29/35
s 8
f 80/112/39 81/113/40 11/35/41 10/36/42
f 81/114/40 82/115/43 12/39/44 11/40/41
s 9
f 12/39/45 82/115/46 83/116/47 9/25/48
s 10
f 79/111/49 80/112/50 10/36/51 7/21/52
s 5
f 10/9/53 73/104/54 74/105/55 7/17/56
s 3
f 10/9/57 11/19/58 78/109/59 73/104/60
f 11/8/58 12/10/61 77/108/62 78/110/59
s 4
f 76/107/63 77/108/64 12/10/65 9/7/66
s 2
f 75/106/67 76/107/68 9/7/69 8/18/70
f 74/105/71 75/106/67 8/18/70 7/17/72
s 10
f 16/33/73 97/132/74 98/133/75 13/24/76
s 8
f 16/33/77 17/34/78 102/137/79 97/132/80
f 17/37/78 18/38/81 101/136/82 102/138/79
s 9
f 100/135/83 101/136/84 18/38/85 15/26/86
s 6
f 99/134/87 100/135/88 15/26/89 14/23/90
f 98/133/91 99/134/87 14/23/90 13/24/92
s 5
f 19/41/93 20/42/94 61/90/95 62/91/96
s 3
f 20/42/97 21/43/98 66/95/99 61/90/100
f 21/44/98 22/45/101 65/94/102 66/96/99
s 4
f 64/93/103 65/94/104 22/45/105 23/46/106
s 2
f 63/92/107 64/93/108 23/46/109 24/47/110
f 62/91/111 63/92/107 24/47/110 19/41/112
s 5
f 67/97/113 68/98/114 20/42/94 19/41/93
s 2
f 19/41/112 24/47/110 72/103/115 67/97/116
f 24/47/110 23/46/109 71/102/117 72/103/115
s 4
f 23/46/106 22/45/105 70/101/118 71/102/119
s 3
f 69/100/120 70/101/121 22/45/101 21/44/98
f 68/98/122 69/99/120 21/43/98 20/42/97
s 10
f 25/48/123 26/49/124 85/118/125 86/119/126
s 8
f 26/49/127 27/50/128 90/123/129 85/118/130
f 27/51/128 28/52/131 89/122/132 90/124/129
s 9
f 88/121/133 89/122/134 28/52/135 29/53/136
s 6
f 87/120/137 88/121/138 29/53/139 30/54/140
f 86/119/141 87/120/137 30/54/140 25/48/142
s 10
f 91/125/143 92/126/144 26/49/124 25/48/123
s 6
f 25/48/142 30/54/140 96/131/145 91/125/146
f 30/54/140 29/53/139 95/130/147 96/131/145
s 9
f 29/53/136 28/52/135 94/129/148 95/130/149
s 8
f 93/128/150 94/129/151 28/52/131 27/51/128
f 92/126/152 93/127/150 27/50/128 26/49/127
s 5
f 31/55/153 32/56/154 56/84/24 55/83/23
s 3
f 32/56/155 33/57/156 57/85/14 56/84/13
f 33/58/156 34/59/157 58/87/17 57/86/14
s 4
f 59/88/21 58/87/20 34/59/158 35/60/159
s 2
f 60/89/9 59/88/12 35/60/160 36/61/161
f 55/83/10 60/89/9 36/61/161 31/55/162
s 5
f 62/91/96 61/90/95 32/56/154 31/55/153
s 2
f 31/55/162 36/61/161 63/92/107 62/91/111
f 36/61/161 35/60/160 64/93/108 63/92/107
s 4
f 35/60/159 34/59/158 65/94/104 64/93/103
s 3
f 66/96/99 65/94/102 34/59/157 33/58/156
f 61/90/100 66/95/99 33/57/156 32/56/155
s 5
f 38/63/163 37/62/164 68/98/114 67/97/113
s 3
f 37/62/165 42/67/166 69/99/120 68/98/122
f 42/68/166 41/66/167 70/101/121 69/100/120
s 4
f 71/102/119 70/101/118 41/66/168 40/65/169
s 2
f 72/103/115 71/102/117 40/65/170 39/64/171
f 67/97/116 72/103/115 39/64/171 38/63/172
s 5
f 74/105/55 73/104/54 37/62/164 38/63/163
s 2
f 38/63/172 39/64/171 75/106/67 74/105/71
f 39/64/171 40/65/170 76/107/68 75/106/67
s 4
f 40/65/169 41/66/168 77/108/64 76/107/63
s 3
f 78/110/59 77/108/62 41/66/167 42/68/166
f 73/104/60 78/109/59 42/67/166 37/62/165
s 10
f 43/69/173 44/70/174 80/112/50 79/111/49
s 8
f 44/70/175 45/71/176 81/113/40 80/112/39
f 45/72/176 46/73/177 82/115/43 81/114/40
s 9
f 83/116/47 82/115/46 46/73/178 47/74/179
s 6
f 84/117/29 83/116/32 47/74/180 48/75/181
f 79/111/30 84/117/29 48/75/181 43/69/182
s 10
f 86/119/126 85/118/125 44/70/174 43/69/173
s 6
f 43/69/182 48/75/181 87/120/137 86/119/141
f 48/75/181 47/74/180 88/121/138 87/120/137
s 9
f 47/74/179 46/73/178 89/122/134 88/121/133
s 8
f 90/124/129 89/122/132 46/73/177 45/72/176
f 85/118/130 90/123/129 45/71/176 44/70/175
s 10
f 50/77/183 49/76/184 92/126/144 91/125/143
s 8
f 49/76/185 54/81/186 93/127/150 92/126/152
f 54/82/186 53/80/187 94/129/151 93/128/150
s 9
f 95/130/149 94/129/148 53/80/188 52/79/189
s 6
f 96/131/145 95/130/147 52/79/190 51/78/191
f 91/125/146 96/131/145 51/78/191 50/77/192
s 10
f 98/133/75 97/132/74 49/76/184 50/77/183
s 6
f 50/77/192 51/78/191 99/134/87 98/133/91
f 51/78/191 52/79/190 100/135/88 99/134/87
s 9
f 52/79/189 53/80/188 101/136/84 100/135/83
s 8
f 102/138/79 101/136/82 53/80/187 54/82/186
f 97/132/80 102/137/79 54/81/186 49/76/185
