# This file uses centimeters as units for non-parametric coordinates.

mtllib outside_corner_LP.mtl
g default
v -1.000000 0.000002 0.000000
v -0.500000 -0.000002 0.000000
v 0.000000 -0.000003 0.000000
v -1.000000 2.000002 0.000000
v -0.500000 1.999998 0.000000
v 0.000000 1.700840 0.000000
v -1.000000 2.000000 -4.000000
v -0.502752 2.000000 -3.493561
v 0.000000 1.700842 -3.000000
v -1.000000 -0.000000 -4.000000
v -0.502752 -0.000000 -3.493561
v 0.000000 0.000000 -3.000000
v 3.000000 2.000000 -4.000000
v 3.000000 2.000000 -3.500000
v 3.000000 1.700842 -3.000000
v 3.000000 0.000000 -4.000000
v 3.000000 0.000000 -3.500000
v 3.000000 0.000000 -3.000000
vt 0.533111 0.025963
vt 0.474722 0.025963
vt 0.708279 0.025963
vt 0.649890 0.025963
vt 0.849243 0.025963
vt 0.790854 0.025963
vt 0.790854 0.376299
vt 0.907633 0.376299
vt 0.533111 0.376299
vt 0.849243 0.376299
vt 0.289368 0.096117
vt 0.289368 0.213864
vt 0.054759 0.096117
vt 0.054759 0.330137
vt 0.171917 0.330137
vt 0.171917 0.096117
vt 0.649890 0.491636
vt 0.708279 0.432879
vt 0.474722 0.376299
vt 0.907633 0.025963
vt 0.651190 0.525801
vt 0.707740 0.580078
vt 0.707740 0.972155
vt 0.651190 0.972155
vt 0.787714 0.632855
vt 0.787714 0.972155
vt 0.317550 0.755568
vt 0.317550 0.873248
vt 0.081519 0.873248
vt 0.081519 0.755568
vt 0.197859 0.990257
vt 0.081519 0.990257
vt 0.538091 0.972155
vt 0.481541 0.972155
vt 0.481541 0.632855
vt 0.538091 0.632855
vt 0.900814 0.972155
vt 0.844264 0.972155
vt 0.844264 0.632855
vt 0.900814 0.632855
vn 0.000000 0.000000 1.000000
vn 0.000000 0.000000 1.000000
vn 0.000000 0.000000 1.000000
vn 0.000000 0.000000 1.000000
vn 0.000000 0.000000 1.000000
vn 0.000000 0.000000 1.000000
vn 0.000004 1.000000 -0.000000
vn 0.267866 0.963456 -0.000113
vn 0.136485 0.990642 -0.000058
vn 0.000004 1.000000 -0.000000
vn 0.512472 0.858704 -0.000217
vn 0.512472 0.858704 -0.000217
vn -0.000004 -1.000000 0.000000
vn -0.000003 -1.000000 -0.000000
vn -0.000002 -1.000000 -0.000000
vn -0.000004 -1.000000 0.000000
vn -0.000000 -1.000000 -0.000001
vn -0.000000 -1.000000 -0.000001
vn 1.000000 0.000000 0.000000
vn 1.000000 0.000000 0.000000
vn 1.000000 0.000000 0.000000
vn 1.000000 0.000000 0.000000
vn -1.000000 0.000000 0.000000
vn -1.000000 0.000000 0.000000
vn -1.000000 0.000000 0.000000
vn -1.000000 0.000000 0.000000
vn -0.000000 1.000000 0.000001
vn 0.000133 0.990881 0.134740
vn 0.000264 0.963661 0.267127
vn -0.000000 1.000000 0.000001
vn 0.000511 0.856777 0.515686
vn 0.000511 0.856777 0.515686
vn 1.000000 0.000000 0.000000
vn 1.000000 0.000000 0.000000
vn 1.000000 0.000000 0.000000
vn 1.000000 0.000000 0.000000
vn 1.000000 0.000000 0.000000
vn 1.000000 0.000000 0.000000
vn 0.000000 -1.000000 -0.000000
vn 0.000000 -1.000000 -0.000000
vn 0.000000 -1.000000 -0.000000
vn 0.000000 -1.000000 -0.000000
vn 0.000000 -1.000000 0.000000
vn 0.000000 -1.000000 0.000000
vn 0.000000 0.000000 1.000000
vn 0.000000 0.000000 1.000000
vn 0.000000 0.000000 1.000000
vn 0.000000 0.000000 1.000000
vn 0.000000 0.000000 -1.000000
vn 0.000000 0.000000 -1.000000
vn 0.000000 0.000000 -1.000000
vn 0.000000 0.000000 -1.000000
s 1
g outside_corner
usemtl initialShadingGroup
f 1/13/1 2/16/2 5/15/3 4/14/4
f 2/16/2 3/11/5 6/12/6 5/15/3
s 2
f 4/4/7 5/3/8 8/18/9 7/17/10
f 5/3/8 6/6/11 9/7/12 8/18/9
s 3
f 10/9/13 11/19/14 2/2/15 1/1/16
f 11/8/14 12/10/17 3/5/18 2/20/15
s off
f 3/5/19 12/10/20 9/7/21 6/6/22
f 10/9/23 1/1/24 4/4/25 7/17/26
s 4
f 7/21/27 8/22/28 14/23/29 13/24/30
f 8/22/28 9/25/31 15/26/32 14/23/29
s 5
f 13/27/33 14/28/34 17/29/35 16/30/36
f 14/28/34 15/31/37 18/32/38 17/29/35
s 6
f 16/33/39 17/34/40 11/35/41 10/36/42
f 17/37/40 18/38/43 12/39/44 11/40/41
s off
f 12/39/45 18/38/46 15/26/47 9/25/48
f 16/33/49 10/36/50 7/21/51 13/24/52
