# This file uses centimeters as units for non-parametric coordinates.

mtllib speed.mtl
g default
v 0.190211 0.500000 -0.061803
v 0.161803 0.500000 -0.117557
v 0.117557 0.500000 -0.161803
v 0.061803 0.500000 -0.190211
v -0.000000 0.500000 -0.200000
v -0.061804 0.500000 -0.190211
v -0.117557 0.500000 -0.161803
v -0.161804 0.500000 -0.117557
v -0.190211 0.500000 -0.061803
v -0.200000 0.500000 0.000000
v -0.190211 0.500000 0.061803
v -0.161804 0.500000 0.117557
v -0.117557 0.500000 0.161803
v -0.061804 0.500000 0.190211
v -0.000000 0.500000 0.200000
v 0.061803 0.500000 0.190211
v 0.117557 0.500000 0.161803
v 0.161803 0.500000 0.117557
v 0.190211 0.500000 0.061803
v 0.200000 0.500000 0.000000
v -0.000000 0.900000 0.000000
v 0.190211 0.500000 0.061803
v 0.161803 0.500000 0.117557
v 0.117557 0.500000 0.161803
v 0.061803 0.500000 0.190211
v -0.000000 0.500000 0.200000
v -0.061804 0.500000 0.190211
v -0.117557 0.500000 0.161803
v -0.161804 0.500000 0.117557
v -0.190211 0.500000 0.061803
v -0.200000 0.500000 0.000000
v -0.190211 0.500000 -0.061803
v -0.161804 0.500000 -0.117557
v -0.117557 0.500000 -0.161803
v -0.061804 0.500000 -0.190211
v -0.000000 0.500000 -0.200000
v 0.061803 0.500000 -0.190211
v 0.117557 0.500000 -0.161803
v 0.161803 0.500000 -0.117557
v 0.190211 0.500000 -0.061803
v 0.200000 0.500000 0.000000
v -0.000000 0.100000 0.000000
vt 0.186071 0.001992
vt 0.231999 0.001992
vt 0.135160 0.331495
vt 0.268447 0.001992
vt 0.135160 0.001992
vt 0.084249 0.001992
vt 0.038322 0.001992
vt 0.001874 0.001992
vt 0.511419 0.001992
vt 0.557347 0.001992
vt 0.608258 0.331495
vt 0.608258 0.001992
vt 0.474971 0.001992
vt 0.659169 0.001992
vt 0.705096 0.001992
vt 0.741544 0.001992
vt 0.554987 0.664751
vt 0.509060 0.664751
vt 0.605898 0.335249
vt 0.472612 0.664751
vt 0.605898 0.664751
vt 0.656809 0.664751
vt 0.702737 0.664751
vt 0.739185 0.664751
vt 0.231999 0.664751
vt 0.186071 0.664751
vt 0.135160 0.335249
vt 0.135160 0.664751
vt 0.268447 0.664751
vt 0.084249 0.664751
vt 0.038322 0.664751
vt 0.001874 0.664751
vt 0.468851 0.331495
vt 0.422923 0.331495
vt 0.372012 0.001992
vt 0.372012 0.331495
vt 0.321101 0.331495
vt 0.275174 0.331495
vt 0.744955 0.335249
vt 0.790883 0.335249
vt 0.841794 0.664751
vt 0.841794 0.335249
vt 0.892705 0.335249
vt 0.938632 0.335249
vt 0.466841 0.664751
vt 0.420914 0.664751
vt 0.370003 0.335249
vt 0.370003 0.664751
vt 0.319092 0.664751
vt 0.273164 0.664751
vt 0.275174 0.668505
vt 0.321101 0.668505
vt 0.372012 0.998008
vt 0.372012 0.668505
vt 0.422923 0.668505
vt 0.468851 0.668505
vn 0.850651 0.447214 -0.276393
vn 0.723607 0.447214 -0.525731
vn 0.000001 1.000000 0.000000
vn 0.525731 0.447214 -0.723607
vn 0.276393 0.447214 -0.850651
vn 0.000000 0.447214 -0.894427
vn -0.276393 0.447214 -0.850651
vn -0.525731 0.447214 -0.723607
vn -0.723607 0.447214 -0.525731
vn -0.850651 0.447214 -0.276393
vn -0.894427 0.447214 0.000000
vn -0.850651 0.447214 0.276393
vn -0.723607 0.447214 0.525731
vn -0.525731 0.447214 0.723607
vn -0.276393 0.447214 0.850651
vn 0.000000 0.447214 0.894427
vn 0.276393 0.447214 0.850651
vn 0.525731 0.447214 0.723607
vn 0.723607 0.447214 0.525731
vn 0.850651 0.447214 0.276393
vn 0.894427 0.447214 0.000001
vn 0.850651 -0.447214 0.276393
vn 0.723607 -0.447214 0.525731
vn -0.000000 -1.000000 0.000001
vn 0.525731 -0.447214 0.723607
vn 0.276393 -0.447214 0.850651
vn 0.000000 -0.447214 0.894427
vn -0.276393 -0.447214 0.850651
vn -0.525731 -0.447214 0.723607
vn -0.723607 -0.447214 0.525731
vn -0.850651 -0.447214 0.276393
vn -0.894427 -0.447214 0.000000
vn -0.850651 -0.447214 -0.276393
vn -0.723607 -0.447214 -0.525731
vn -0.525731 -0.447214 -0.723607
vn -0.276393 -0.447214 -0.850651
vn 0.000000 -0.447214 -0.894427
vn 0.276393 -0.447214 -0.850651
vn 0.525731 -0.447214 -0.723607
vn 0.723607 -0.447214 -0.525731
vn 0.850651 -0.447214 -0.276393
vn 0.894427 -0.447214 -0.000001
s 1
g speed
usemtl initialShadingGroup
f 1/1/1 2/2/2 21/3/3
f 2/2/2 3/4/4 21/3/3
f 3/33/4 4/34/5 21/35/3
f 4/34/5 5/36/6 21/35/3
f 5/36/6 6/37/7 21/35/3
f 6/37/7 7/38/8 21/35/3
f 7/13/8 8/9/9 21/11/3
f 8/9/9 9/10/10 21/11/3
f 9/10/10 10/12/11 21/11/3
f 10/12/11 11/14/12 21/11/3
f 11/14/12 12/15/13 21/11/3
f 12/15/13 13/16/14 21/11/3
f 13/39/14 14/40/15 21/41/3
f 14/40/15 15/42/16 21/41/3
f 15/42/16 16/43/17 21/41/3
f 16/43/17 17/44/18 21/41/3
f 17/8/18 18/7/19 21/3/3
f 18/7/19 19/6/20 21/3/3
f 19/6/20 20/5/21 21/3/3
f 20/5/21 1/1/1 21/3/3
s 2
f 22/17/22 23/18/23 42/19/24
f 23/18/23 24/20/25 42/19/24
f 24/45/25 25/46/26 42/47/24
f 25/46/26 26/48/27 42/47/24
f 26/48/27 27/49/28 42/47/24
f 27/49/28 28/50/29 42/47/24
f 28/29/29 29/25/30 42/27/24
f 29/25/30 30/26/31 42/27/24
f 30/26/31 31/28/32 42/27/24
f 31/28/32 32/30/33 42/27/24
f 32/30/33 33/31/34 42/27/24
f 33/31/34 34/32/35 42/27/24
f 34/51/35 35/52/36 42/53/24
f 35/52/36 36/54/37 42/53/24
f 36/54/37 37/55/38 42/53/24
f 37/55/38 38/56/39 42/53/24
f 38/24/39 39/23/40 42/19/24
f 39/23/40 40/22/41 42/19/24
f 40/22/41 41/21/42 42/19/24
f 41/21/42 22/17/22 42/19/24
