# This file uses centimeters as units for non-parametric coordinates.

mtllib wall_LP.mtl
g default
v -1.000000 0.000000 0.000000
v -0.500000 0.000000 0.000000
v 0.000000 0.000000 0.000000
v -1.000000 3.000000 0.000000
v -0.500000 3.000000 0.000000
v 0.000000 2.000576 0.000000
v -1.000000 3.000000 -3.000000
v -0.500000 3.000000 -3.000000
v 0.000000 2.000576 -3.000000
v -1.000000 0.000000 -3.000000
v -0.500000 0.000000 -3.000000
v 0.000000 0.000000 -3.000000
vt 0.475173 0.010765
vt 0.395381 0.010765
vt 0.714548 0.010765
vt 0.634756 0.010765
vt 0.907182 0.010765
vt 0.827390 0.010765
vt 0.317550 0.372228
vt 0.317550 0.254548
vt 0.827390 0.489515
vt 0.986973 0.489515
vt 0.475173 0.489515
vt 0.907182 0.489515
vt 0.348675 0.008446
vt 0.348675 0.126193
vt 0.114066 0.008446
vt 0.114066 0.242466
vt 0.231223 0.242466
vt 0.231223 0.008446
vt 0.197859 0.489238
vt 0.081519 0.489238
vt 0.634756 0.489515
vt 0.081519 0.254548
vt 0.081519 0.372228
vt 0.714548 0.489515
vt 0.395381 0.489515
vt 0.986973 0.010765
vn 0.000000 0.000000 1.000000
vn 0.000000 0.000000 1.000000
vn 0.000000 0.000000 1.000000
vn 0.000000 0.000000 1.000000
vn 0.000000 0.000000 1.000000
vn 0.000000 0.000000 1.000000
vn 0.000000 1.000000 0.000000
vn 0.706903 0.707310 0.000000
vn 0.706903 0.707310 0.000000
vn 0.000000 1.000000 0.000000
vn 0.894324 0.447420 0.000000
vn 0.894324 0.447420 0.000000
vn 0.000000 0.000000 -1.000000
vn 0.000000 0.000000 -1.000000
vn 0.000000 0.000000 -1.000000
vn 0.000000 0.000000 -1.000000
vn 0.000000 0.000000 -1.000000
vn 0.000000 0.000000 -1.000000
vn 0.000000 -1.000000 0.000000
vn 0.000000 -1.000000 0.000000
vn 0.000000 -1.000000 0.000000
vn 0.000000 -1.000000 0.000000
vn 0.000000 -1.000000 0.000000
vn 0.000000 -1.000000 0.000000
vn 1.000000 0.000000 0.000000
vn 1.000000 0.000000 0.000000
vn 1.000000 0.000000 0.000000
vn 1.000000 0.000000 0.000000
vn -1.000000 0.000000 0.000000
vn -1.000000 0.000000 0.000000
vn -1.000000 0.000000 0.000000
vn -1.000000 0.000000 0.000000
s 1
g wall
usemtl initialShadingGroup
f 1/15/1 2/18/2 5/17/3 4/16/4
f 2/18/2 3/13/5 6/14/6 5/17/3
s 2
f 4/4/7 5/3/8 8/24/9 7/21/10
f 5/3/8 6/6/11 9/9/12 8/24/9
s 3
f 7/8/13 8/7/14 11/23/15 10/22/16
f 8/7/14 9/19/17 12/20/18 11/23/15
s 4
f 10/11/19 11/25/20 2/2/21 1/1/22
f 11/10/20 12/12/23 3/5/24 2/26/21
s off
f 3/5/25 12/12/26 9/9/27 6/6/28
f 10/11/29 1/1/30 4/4/31 7/21/32
